<svg xmlns="http://www.w3.org/2000/svg" width="224" height="128" fill="none"><g clip-path="url(#a)"><mask id="b" width="97" height="130" x="17" y="3" maskUnits="userSpaceOnUse" style="mask-type:alpha"><path fill="#D9D9D9" fill-rule="evenodd" d="m92.054 3.28-74.99 25.85 65.948 103.523 30.241-67.873-11.216-32.537c5.46-2 8.336-8.013 6.433-13.535-1.903-5.521-7.874-8.485-13.406-6.696l-3.01-8.731Z" clip-rule="evenodd"/></mask><g mask="url(#b)"><path fill="#52617E" fill-rule="evenodd" d="M60.482 82.97c10.046 29.145 41.816 44.627 70.961 34.581 29.144-10.046 44.627-41.816 34.581-70.96-10.046-29.145-41.816-44.627-70.96-34.581-29.145 10.046-44.628 41.816-34.582 70.96Zm20.235-6.976c6.194 17.97 25.782 27.515 43.75 21.321 17.969-6.194 27.515-25.781 21.321-43.75-6.194-17.969-25.781-27.514-43.75-21.32-17.969 6.193-27.514 25.78-21.32 43.75Z" clip-rule="evenodd"/></g><mask id="c" width="125" height="103" x="66" y="64" maskUnits="userSpaceOnUse" style="mask-type:alpha"><path fill="#D9D9D9" fill-rule="evenodd" d="M66.871 110.912 122.96 167l67.958-67.958-78.048-34.127L88.533 89.25c-4.19-4.031-10.855-3.982-14.985.148-4.13 4.13-4.179 10.795-.147 14.984l-6.53 6.53Z" clip-rule="evenodd"/></mask><g mask="url(#c)"><path fill="#5B719A" fill-rule="evenodd" d="M152.338 104.384c21.798-21.798 21.798-57.14 0-78.938-21.798-21.798-57.14-21.798-78.938 0-21.799 21.798-21.799 57.14 0 78.938 21.798 21.798 57.14 21.798 78.938 0Zm-15.135-15.135c13.439-13.44 13.439-35.229 0-48.668-13.44-13.44-35.229-13.44-48.669 0-13.44 13.44-13.44 35.229 0 48.668 13.44 13.44 35.229 13.44 48.669 0Z" clip-rule="evenodd"/></g><mask id="d" width="102" height="100" x="113" y="22" maskUnits="userSpaceOnUse" style="mask-type:alpha"><path fill="#D9D9D9" fill-rule="evenodd" d="m145.55 121.121 68.693-39.82-28.709-58.777-72.509 42.033 17.208 29.926c-4.979 3.016-6.657 9.493-3.737 14.571 2.92 5.079 9.346 6.858 14.437 4.037l4.617 8.03Z" clip-rule="evenodd"/></mask><g mask="url(#d)"><path fill="#6180BC" fill-rule="evenodd" d="M161.364 36.535C145.951 9.73 111.813.545 85.116 16.022 58.419 31.498 49.27 65.774 64.685 92.579c15.414 26.806 49.551 35.99 76.248 20.514 26.698-15.476 35.845-49.752 20.431-76.558Zm-18.536 10.746c-9.503-16.527-30.55-22.19-47.01-12.648-16.46 9.542-22.1 30.675-12.597 47.202 9.503 16.526 30.551 22.189 47.011 12.647 16.46-9.542 22.099-30.674 12.596-47.201Z" clip-rule="evenodd"/></g><mask id="e" width="88" height="102" x="82" y="-37" maskUnits="userSpaceOnUse" style="mask-type:alpha"><path fill="#D9D9D9" fill-rule="evenodd" d="m169.612 32.362-39.66-68.694L82.639-11.68l30.638 76.568 29.805-17.208c3.003 4.979 9.454 6.657 14.512 3.736 5.058-2.92 6.83-9.345 4.02-14.436l7.998-4.617Z" clip-rule="evenodd"/></mask><g mask="url(#e)"><path fill="#688FD9" fill-rule="evenodd" d="M85.368 16.548C58.67 31.96 49.523 66.098 64.937 92.796c15.413 26.697 49.551 35.845 76.248 20.431 26.697-15.414 35.845-49.551 20.431-76.249-15.414-26.697-49.551-35.844-76.249-20.43Zm10.701 18.536c-16.46 9.503-22.1 30.55-12.596 47.01 9.503 16.46 30.55 22.1 47.01 12.597 16.46-9.503 22.1-30.55 12.597-47.01-9.503-16.46-30.551-22.1-47.01-12.597Z" clip-rule="evenodd"/></g><mask id="f" width="91" height="66" x="33" y="-1" maskUnits="userSpaceOnUse" style="mask-type:alpha"><path fill="#D9D9D9" fill-rule="evenodd" d="M113.171-.14h-79.32L48.121 15.6l65.05 49.312V30.495c5.814-.112 10.492-4.86 10.492-10.7 0-5.84-4.678-10.588-10.492-10.7V-.14Z" clip-rule="evenodd"/></mask><g mask="url(#f)"><path fill="#8CB4FF" fill-rule="evenodd" d="M57.353 64.912c0 30.828 24.99 55.818 55.818 55.818 30.827 0 55.818-24.99 55.818-55.818 0-30.827-24.991-55.817-55.818-55.817-30.827 0-55.818 24.99-55.818 55.817Zm21.404 0c0 19.006 15.408 34.414 34.414 34.414s34.414-15.408 34.414-34.414c0-19.007-15.408-34.414-34.414-34.414S78.757 45.905 78.757 64.912Z" clip-rule="evenodd"/></g><mask id="g" width="97" height="130" x="17" y="3" maskUnits="userSpaceOnUse" style="mask-type:alpha"><path fill="#D9D9D9" fill-rule="evenodd" d="m92.054 3.28-74.99 25.85 65.948 103.523 30.241-67.873-11.216-32.537c5.46-2 8.336-8.013 6.433-13.535-1.903-5.521-7.874-8.485-13.406-6.696l-3.01-8.731Z" clip-rule="evenodd"/></mask><g mask="url(#g)"><path fill="#52617E" fill-rule="evenodd" d="M139.766 42.825c-8.879-10.72-23.791-15.385-37.728-10.58-14.567 5.02-23.599 18.845-23.196 33.473C73.43 70.39 67.721 75.938 60.6 82.856l-.118.114C50.436 53.826 65.92 22.056 95.063 12.01c29.145-10.046 60.915 5.436 70.961 34.58 4.704 13.649 1.414 11.497-6.408 6.383-5.042-3.298-11.968-7.827-19.85-10.148Z" clip-rule="evenodd"/></g></g><defs><clipPath id="a"><path fill="#fff" d="M0 0h224v128H0z"/></clipPath></defs></svg>
