<svg xmlns="http://www.w3.org/2000/svg" width="224" height="128" fill="none"><g clip-path="url(#a)"><rect width="224" height="89.6" x="224" y="-48" fill="#52617E" rx="12" transform="rotate(90 224 -48)"/><path fill="#5B719A" d="M89.6-48h58.311v224H89.6z"/><path fill="#6180BC" d="M25.6-48h64v224h-64z"/><path fill="#688FD9" d="M5-42a6 6 0 0 1 6-6h44v224H11a6 6 0 0 1-6-6V-42Z"/><path fill="#8CB4FF" d="M0-36c0-6.627 5.373-12 12-12h12v224H12c-6.627 0-12-5.373-12-12V-36Z"/></g><defs><clipPath id="a"><path fill="#fff" d="M0 0h224v128H0z"/></clipPath></defs></svg>
